<svg width="64" height="64" viewBox="0 0 64 64" fill="none" xmlns="http://www.w3.org/2000/svg">
<g clip-path="url(#clip0_13_22)">
<path d="M15.409 51.53C12.5117 51.53 10.162 50.523 8.36 48.509C6.59333 46.495 5.71 43.792 5.71 40.4V32.503C5.71 29.0757 6.59333 26.355 8.36 24.341C10.1267 22.327 12.4763 21.32 15.409 21.32C17.8117 21.32 19.7197 22.009 21.133 23.387C22.5463 24.7297 23.253 26.5847 23.253 28.952L21.769 27.415H23.306L23.094 20.472V12.31H29.719V51H23.253V45.435H21.769L23.253 43.898C23.253 46.2653 22.5463 48.138 21.133 49.516C19.7197 50.8587 17.8117 51.53 15.409 51.53ZM17.741 45.806C19.437 45.806 20.7443 45.3113 21.663 44.322C22.617 43.2973 23.094 41.884 23.094 40.082V32.768C23.094 30.966 22.617 29.5703 21.663 28.581C20.7443 27.5563 19.437 27.044 17.741 27.044C16.045 27.044 14.72 27.5387 13.766 28.528C12.812 29.5173 12.335 30.9307 12.335 32.768V40.082C12.335 41.9193 12.812 43.3327 13.766 44.322C14.72 45.3113 16.045 45.806 17.741 45.806Z" fill="#CCFF00"/>
<path d="M44.8563 51.477C42.6303 51.477 40.687 51.1237 39.0263 50.417C37.3656 49.7103 36.0583 48.7387 35.1043 47.502C34.1856 46.23 33.691 44.746 33.6203 43.05H40.2453C40.316 43.9687 40.7576 44.7107 41.5703 45.276C42.4183 45.8413 43.5136 46.124 44.8563 46.124H47.1883C48.8136 46.124 50.0326 45.806 50.8453 45.17C51.658 44.534 52.0643 43.6683 52.0643 42.573C52.0643 41.5483 51.6933 40.7533 50.9513 40.188C50.2446 39.5873 49.1316 39.1987 47.6123 39.022L44.0083 38.492C40.687 38.0327 38.249 37.1493 36.6943 35.842C35.1396 34.5347 34.3623 32.5737 34.3623 29.959C34.3623 27.2383 35.281 25.136 37.1183 23.652C38.9556 22.1327 41.6586 21.373 45.2273 21.373H47.2413C50.492 21.373 53.089 22.0973 55.0323 23.546C56.9756 24.9947 58.018 26.938 58.1593 29.376H51.5343C51.4283 28.5987 50.9866 27.9627 50.2093 27.468C49.4673 26.9733 48.478 26.726 47.2413 26.726H45.2273C43.708 26.726 42.595 27.0087 41.8883 27.574C41.217 28.104 40.8813 28.899 40.8813 29.959C40.8813 30.9483 41.1816 31.6903 41.7823 32.185C42.383 32.6443 43.3546 32.98 44.6973 33.192L48.4603 33.722C51.923 34.2167 54.467 35.153 56.0923 36.531C57.753 37.8737 58.5833 39.87 58.5833 42.52C58.5833 45.3467 57.6116 47.555 55.6683 49.145C53.7603 50.6997 50.9336 51.477 47.1883 51.477H44.8563Z" fill="white"/>
</g>
<defs>
<clipPath id="clip0_13_22">
<rect width="64" height="64" fill="white"/>
</clipPath>
</defs>
</svg>
